PathFileType	4	(X/Y/Z)	D:\TRACE\v60_Jaco2_6-2-23\JustBodyDRS_Motion3_6-v60.trc
DataRate	CameraRate	NumFrames	NumMarkers	Units	OrigDataRate	OrigDataStartFrame	OrigNumFrames
100.00	100.00	      42	9	mm	100.00	5251	      7000
Frame#	Time	front left toe			Front right toe			aft left toe			aft right toe			Arm			FL body			FR body			AL Body			AR Body			
		X1	Y1	Z1	X2	Y2	Z2	X3	Y3	Z3	X4	Y4	Z4	X5	Y5	Z5	X6	Y6	Z6	X7	Y7	Z7	X8	Y8	Z8	X9	Y9	Z9	

5251	52.500	-205.77277	8.86791	-190.92212	175.77158	52.96221	-216.46207	-194.18629	67.63911	410.96164	171.40787	21.51736	428.75778	7.36799	1167.18213	-291.14282	-98.04858	521.81628	-379.01700	60.04311	520.54785	-380.58856	-81.46342	559.79779	565.35284	69.63652	549.27808	563.31000	
5252	52.510	-205.74953	8.83153	-190.86639	176.45392	45.31843	-217.04172	-194.14925	60.03841	410.32809	171.66905	21.50814	428.74506	7.75311	1166.96204	-291.32529	-98.12746	521.73907	-379.31451	59.84062	520.44684	-381.04944	-81.19821	559.46429	564.80035	70.69476	548.75458	562.30005	
5253	52.520	-205.63022	8.87492	-190.82027	177.19414	38.05672	-217.79489	-192.89244	51.77269	410.01709	171.79538	21.45121	428.71799	8.02658	1166.78052	-291.74207	-98.22349	521.77899	-379.82278	60.52113	520.33466	-381.57724	-80.60453	559.29187	564.25153	71.03674	548.84692	562.43060	
5254	52.530	-205.59091	8.99471	-190.84969	176.72969	31.56994	-218.16902	-192.02716	45.07169	409.40192	172.00536	21.30560	428.68350	8.15218	1166.75732	-292.30350	-98.44171	521.93903	-380.42044	59.84037	520.48499	-382.04089	-79.68474	559.25885	564.08356	71.65840	548.67877	561.88922	
5255	52.540	-205.42296	9.06566	-190.83475	177.36330	25.20867	-218.71848	-191.90370	38.64957	409.10028	172.10027	21.14264	428.65198	8.01642	1166.96692	-292.72195	-98.36407	521.94226	-380.91571	59.81425	520.74957	-382.77579	-79.40785	558.87091	563.40057	71.99000	548.33496	560.66968	
5256	52.550	-205.37309	9.12287	-190.81973	177.33328	18.70629	-219.05699	-191.65692	31.92316	408.29221	172.25578	20.91206	428.58377	7.66475	1167.17871	-293.25864	-98.26869	521.91351	-381.23605	60.60402	520.60229	-383.44373	-79.11379	558.95215	562.52405	72.41762	548.57898	560.59381	
5257	52.560	-205.30016	9.15015	-190.75667	177.65350	13.97270	-220.62743	-191.66814	25.20279	406.90060	172.34789	20.70805	428.61456	7.32656	1167.31165	-293.78680	-98.24150	522.00562	-381.90424	60.65630	520.61389	-384.02902	-78.40002	559.01740	562.16736	72.87000	548.52039	559.87238	
5258	52.570	-205.14076	9.15935	-190.66624	180.17821	11.95295	-220.37663	-192.46220	24.85966	406.60336	172.61633	20.58177	428.68866	7.27276	1167.37415	-294.27829	-98.07047	522.07526	-382.54562	60.84369	520.99103	-384.95908	-77.90117	559.01080	561.71289	73.29285	548.74640	559.25909	
5259	52.580	-205.04008	9.27867	-190.77081	179.03476	11.60058	-222.07069	-192.56529	23.78184	405.71225	172.59088	20.81550	428.56134	7.28829	1167.54529	-294.98212	-97.99305	522.39734	-382.75928	60.88803	521.27350	-385.39413	-77.21313	560.11646	561.10663	73.89196	549.74780	558.59650	
5260	52.590	-204.84575	10.24510	-190.97653	179.20586	11.78596	-220.56129	-192.18777	23.95090	406.38309	172.25671	21.75678	428.00610	7.24765	1168.34326	-296.09119	-98.34914	523.09326	-383.38449	60.80321	521.86151	-385.83438	-75.96019	561.58850	560.58130	74.23367	551.05511	557.37018	
5261	52.600	-202.96204	14.15279	-190.63918	180.03061	11.29264	-220.74980	-192.27092	22.70915	407.10928	170.85442	24.63236	429.05048	7.64715	1169.22461	-297.03067	-98.50479	523.83862	-383.76953	60.27728	522.86639	-386.66443	-75.55486	562.41321	560.16315	75.39478	551.76483	556.81976	
5262	52.610	-199.47173	17.98433	-187.81558	180.01147	11.49233	-221.19347	-192.29315	22.70449	407.00998	168.66205	28.03223	432.05212	7.17876	1170.13623	-298.64572	-98.69582	524.62598	-384.28555	60.12868	523.40918	-387.19897	-75.23175	562.86060	559.49890	76.23988	552.32605	556.85101	
5263	52.620	-196.08015	22.59105	-185.02483	180.01523	11.41235	-221.48816	-191.70555	22.11744	406.71237	164.39381	34.65693	433.09833	6.96242	1170.56213	-299.22385	-98.60667	524.88525	-384.54233	60.09802	523.78436	-387.66742	-74.61562	562.91321	558.93073	76.80862	552.43512	556.10608	
5264	52.630	-195.62144	33.33196	-186.52051	180.11919	11.23494	-221.66589	-191.60710	22.02967	406.80423	163.06566	43.41163	432.69492	5.85208	1170.90210	-299.77032	-98.79049	525.37073	-385.52997	59.04571	524.58844	-388.25586	-74.16904	563.11444	558.43866	76.59246	552.60962	555.47797	
5265	52.640	-195.90866	43.20439	-187.91321	180.17641	11.07909	-221.56120	-191.52170	21.91604	406.74725	162.75615	54.55579	430.07965	5.53555	1170.75989	-299.77844	-98.48981	525.26434	-386.07822	59.72261	524.19019	-388.80063	-74.09499	563.24377	557.91125	76.91396	552.74536	555.12134	
5266	52.650	-197.55296	54.98103	-190.57964	180.16216	11.16331	-221.19939	-191.59433	21.91246	406.85840	165.09924	66.09278	427.91776	5.55865	1170.61597	-299.82108	-98.14742	525.00720	-386.50989	60.90281	523.73114	-389.32303	-74.21479	563.14606	557.32050	77.22385	552.56702	554.62640	
5267	52.660	-199.25165	66.94044	-193.52412	180.24646	11.01932	-221.42975	-191.39676	21.82655	406.47842	168.01913	77.78431	425.17664	6.13874	1170.44690	-300.09897	-97.82874	524.88068	-387.18521	60.98385	523.57538	-389.86389	-74.48046	562.75482	556.74579	76.86239	551.64532	553.73560	
5268	52.670	-199.91057	78.04887	-195.60634	180.41098	11.05331	-221.33287	-191.65161	21.54013	406.35025	169.86916	88.88187	422.68158	6.92843	1170.02319	-300.48367	-97.54979	524.66864	-387.76880	61.15331	523.37408	-390.38068	-75.35391	561.89667	556.35980	76.21120	550.97382	553.36316	
5269	52.680	-200.14577	88.89581	-197.76503	180.63071	11.05202	-221.19063	-191.73059	21.15655	406.21402	171.38893	99.64106	420.17886	8.72283	1169.38293	-300.55127	-97.12596	524.08496	-388.00131	61.49723	523.20953	-390.78018	-75.70120	561.45764	556.10590	75.77133	550.70087	553.48669	
5270	52.690	-200.23073	99.82096	-200.21031	180.63548	11.01622	-221.14372	-191.65518	20.90458	406.29849	172.02097	110.36369	417.84064	9.22307	1168.92664	-300.69659	-96.72373	523.70563	-388.34515	61.92922	522.75732	-391.05240	-76.08423	561.15857	555.39117	75.49911	550.46075	553.13684	
5271	52.700	-200.02844	109.67741	-202.44989	180.76364	11.04395	-221.07207	-191.77589	20.90703	406.21133	171.35632	121.05596	415.77652	9.24990	1168.66626	-301.11740	-96.64118	523.43384	-388.94485	61.62860	522.38934	-391.01309	-76.30007	561.06653	554.96173	75.34224	550.44299	552.87952	
5272	52.710	-200.68802	118.81281	-204.28360	180.83099	11.05045	-220.95940	-191.81145	20.87004	406.21365	170.71898	130.49304	414.00174	9.49601	1168.40417	-301.52316	-96.66785	523.13367	-389.42905	61.92742	522.01550	-391.27402	-76.39260	561.08478	554.65271	75.05049	550.43140	552.55585	
5273	52.720	-201.28954	127.04667	-206.21068	180.94183	11.08960	-220.91644	-191.80113	20.65846	406.17737	169.95212	138.95482	412.08698	9.26486	1168.32263	-302.32025	-96.30212	522.59137	-389.76187	62.67262	521.47156	-391.72928	-76.76462	561.14581	554.50952	74.63518	550.31909	552.25403	
5274	52.730	-202.10191	133.94991	-207.91026	179.83192	11.04612	-220.66991	-192.23155	20.64568	406.92389	170.66754	145.89374	410.44656	9.18530	1167.93640	-302.95795	-95.91782	522.28223	-389.98141	62.78998	521.04401	-391.89566	-77.44231	561.02094	554.00549	74.20898	550.31226	552.11133	
5275	52.740	-203.01378	139.75235	-209.60474	179.85353	11.09248	-220.53923	-191.97743	20.05849	406.67755	172.27585	150.79488	408.94739	9.09137	1167.53333	-303.87793	-95.67602	522.11029	-390.23331	63.26092	520.64832	-391.83041	-78.16425	561.26190	553.76160	73.92881	550.37756	551.94214	
5276	52.750	-204.10242	143.50406	-211.03856	179.90166	11.16948	-220.42456	-192.25685	20.46593	407.02145	172.77963	152.70314	407.35190	9.22251	1167.07153	-304.51544	-95.36166	521.80701	-390.45776	63.55950	520.46307	-392.05774	-78.80137	561.50293	553.63654	73.24546	550.66449	551.85724	
5277	52.760	-204.41615	142.17125	-211.55020	179.87996	11.19463	-220.37552	-192.20125	20.56961	406.39673	173.38840	152.02432	406.69547	9.83323	1166.82983	-304.94138	-95.12669	521.58514	-390.84659	63.88719	520.41821	-392.22855	-79.14210	561.60443	553.47522	72.07233	551.21649	551.66840	
5278	52.770	-204.20349	138.14896	-212.13701	179.83356	11.25950	-220.33008	-192.32404	20.19586	406.86887	173.58429	149.11952	406.37668	10.50607	1166.64087	-305.02383	-94.80022	521.37543	-391.07928	63.54647	520.26276	-392.11673	-80.00861	562.03674	553.02148	71.55620	551.36755	551.55786	
5279	52.780	-203.44545	132.68793	-212.89583	179.87180	11.21656	-220.29263	-192.33469	20.12081	406.92499	173.13905	144.93155	405.85315	10.90570	1166.66516	-304.97180	-94.62959	521.16809	-391.17941	63.59499	520.14099	-392.25751	-80.43425	562.21448	552.74969	71.30344	551.22058	551.05743	
5280	52.790	-202.65445	126.95315	-214.15344	179.88054	11.21557	-220.16170	-192.26706	20.09381	406.50143	172.86324	139.91641	405.30960	10.45549	1166.84180	-305.06992	-94.39514	521.00006	-391.42859	63.64889	520.06348	-392.40424	-81.32217	561.86823	552.60297	70.43066	551.06940	551.25085	
5281	52.800	-202.12886	121.40881	-215.93190	179.95012	11.22328	-220.09895	-192.30222	19.95693	406.44171	172.40378	133.98120	404.23169	9.82666	1166.95544	-305.20642	-94.22032	520.88531	-391.79358	63.77685	520.14185	-392.54605	-81.89796	561.67572	552.29810	70.09986	551.04816	551.16663	
5282	52.810	-202.18484	115.76492	-218.11456	180.13089	11.25319	-220.04677	-192.36655	19.59763	406.83167	171.91069	127.08392	402.87347	9.09792	1166.74182	-305.37723	-94.13300	520.95526	-392.26266	64.05636	520.27081	-392.84918	-82.42068	561.82355	551.98590	69.40540	550.98083	550.96051	
5283	52.820	-202.45436	109.76329	-220.09322	180.05887	11.30767	-220.04071	-192.51172	19.51915	406.68597	171.61055	119.99844	401.17682	8.33145	1166.54968	-305.85632	-94.01241	520.91266	-392.54916	64.31625	520.28772	-393.06802	-83.05660	561.70752	551.61243	68.91074	550.94037	550.74750	
5284	52.830	-202.94839	103.02072	-221.77821	180.02292	11.30084	-219.98859	-192.48874	19.63285	406.24963	172.32742	112.51114	399.45215	7.62464	1166.54529	-306.24338	-93.99593	520.78473	-392.80243	64.56054	520.19775	-393.19965	-83.52990	561.51251	551.49316	68.11088	550.83502	550.53210	
5285	52.840	-202.96223	95.20811	-223.20459	180.02933	11.45315	-219.92221	-192.53191	19.46714	406.18506	172.39694	104.96316	397.60391	7.09718	1166.57581	-306.34030	-93.83929	520.58124	-393.01044	64.69133	520.06818	-393.40140	-84.15269	561.23505	551.27277	67.42738	550.63855	550.39459	
5286	52.850	-203.31067	86.99942	-224.39914	179.91782	11.40541	-219.96814	-192.61703	19.35677	406.20245	172.14687	96.44344	395.92981	6.90373	1166.52734	-306.49777	-93.56852	520.07629	-393.01459	64.62125	519.97266	-393.60471	-84.81020	560.96411	551.07416	66.83344	550.56940	550.20599	
5287	52.860	-203.52133	78.34701	-225.61145	179.77696	11.41857	-219.95390	-192.60887	19.35289	406.15292	172.63235	88.50417	394.93350	6.85522	1166.40466	-306.60626	-93.74805	520.18713	-393.57373	64.48627	519.96680	-393.83765	-85.23474	560.96985	550.77502	66.46620	550.65582	549.92169	
5288	52.870	-203.48492	69.40542	-226.31241	179.83200	11.46075	-219.91055	-192.54774	19.25969	406.13882	172.33574	79.63101	394.15146	7.06536	1166.09973	-306.65509	-93.91051	520.13336	-393.96326	65.05179	519.81116	-394.11984	-85.80439	560.96869	550.26093	65.90816	550.63849	549.54565	
5289	52.880	-203.93050	60.65286	-226.76202	179.87038	11.47350	-219.90250	-192.09366	18.75193	406.04623	172.61293	71.42625	393.53345	6.90899	1166.00366	-306.90527	-93.97002	519.82703	-394.41003	64.95744	519.68829	-394.53583	-86.21648	561.04254	550.29907	65.45959	550.59595	549.22906	
5290	52.890	-204.20444	51.69141	-226.44969	179.95164	11.58810	-219.77592	-192.17390	18.58388	406.02408	171.85088	62.97581	392.73831	6.30631	1165.79504	-307.43451	-93.98394	519.51654	-394.68900	64.85844	519.49542	-394.87814	-86.48573	561.02094	550.08191	65.02897	550.40009	548.83612	
5291	52.900	-204.37846	43.32995	-226.14001	179.78162	11.56817	-219.83461	-192.34981	18.30992	406.35962	171.53120	55.19160	392.23322	5.60023	1165.75781	-308.16409	-94.02902	519.22156	-394.92218	64.24213	519.33606	-395.11975	-86.83469	560.97382	549.74414	65.60216	550.33252	548.72101	
5292	52.910	-205.81792	36.63705	-226.03529	179.67937	11.55744	-219.83444	-192.47395	18.20828	406.45895	170.67442	47.77361	392.03116	5.15158	1165.53333	-308.88525	-94.35812	519.01947	-395.43005	63.85331	519.05920	-395.22552	-88.10187	560.73907	548.81696	64.77345	550.25580	548.23547	
